<svg version="1.1" xmlns="http://www.w3.org/2000/svg" viewBox="0 0 1833.722412109375 658.0165425693635" width="1833.722412109375" height="658.0165425693635">
  <!-- svg-source:excalidraw -->
  
  <defs>
    <style class="style-fonts">
      @font-face {
        font-family: "Virgil";
        src: url("https://excalidraw.com/Virgil.woff2");
      }
      @font-face {
        font-family: "Cascadia";
        src: url("https://excalidraw.com/Cascadia.woff2");
      }
      @font-face {
        font-family: "Assistant";
        src: url("https://excalidraw.com/Assistant-Regular.woff2");
      }
    </style>
    
  </defs>
  <rect x="0" y="0" width="1833.722412109375" height="658.0165425693635" fill="#ffffff"></rect><g stroke-linecap="round" transform="translate(327.7734375 197.3933719751505) rotate(0 123.71484375 99.35546875)"><path d="M32 0 C74.69 -1.64, 115.59 0.01, 215.43 0 M32 0 C69.37 -0.52, 106.38 -2.16, 215.43 0 M215.43 0 C236.31 -1.04, 247.99 8.98, 247.43 32 M215.43 0 C236.87 1.04, 248.79 11.71, 247.43 32 M247.43 32 C248.25 86.76, 249.34 138.65, 247.43 166.71 M247.43 32 C248.36 79.73, 249.53 125.95, 247.43 166.71 M247.43 166.71 C245.66 186.61, 237.24 198.95, 215.43 198.71 M247.43 166.71 C245.48 189.81, 236.4 197.9, 215.43 198.71 M215.43 198.71 C144.5 200.03, 68.62 200.37, 32 198.71 M215.43 198.71 C175.59 198.16, 135.67 196.69, 32 198.71 M32 198.71 C11.73 198.51, 0.81 186.18, 0 166.71 M32 198.71 C11.34 198.28, 0.84 187.28, 0 166.71 M0 166.71 C1.74 130.69, 0.09 97.65, 0 32 M0 166.71 C0.1 137.7, 0.97 107.61, 0 32 M0 32 C0.67 11.63, 9.22 -1.23, 32 0 M0 32 C0.14 10.2, 10.11 -1.98, 32 0" stroke="#1e1e1e" stroke-width="2" fill="none"></path></g><g transform="translate(349.14832305908203 244.2488407251505) rotate(0 102.33995819091797 52.5)"><text x="102.33995819091797" y="0" font-family="Virgil, Segoe UI Emoji" font-size="28px" fill="#1971c2" text-anchor="middle" style="white-space: pre;" direction="ltr" dominant-baseline="text-before-edge">MultiOn Agent </text><text x="102.33995819091797" y="35" font-family="Virgil, Segoe UI Emoji" font-size="28px" fill="#1971c2" text-anchor="middle" style="white-space: pre;" direction="ltr" dominant-baseline="text-before-edge">Wrapper</text><text x="102.33995819091797" y="70" font-family="Virgil, Segoe UI Emoji" font-size="28px" fill="#1971c2" text-anchor="middle" style="white-space: pre;" direction="ltr" dominant-baseline="text-before-edge"></text></g><g stroke-linecap="round"><g transform="translate(204.78515625 268.2996219751505) rotate(0 60.390625 -0.058698983901308566)"><path d="M-0.68 -0.45 C19.09 -0.55, 99.28 0.19, 119.65 0.31 M1.16 -1.73 C21.2 -2.28, 101.77 -1.57, 121.77 -1.59" stroke="#1971c2" stroke-width="2" fill="none"></path></g><g transform="translate(204.78515625 268.2996219751505) rotate(0 60.390625 -0.058698983901308566)"><path d="M93.53 8.56 C103.5 2.95, 115.74 2.19, 121.77 -1.59 M93.53 8.56 C103.28 6.29, 113.28 2.63, 121.77 -1.59" stroke="#1971c2" stroke-width="2" fill="none"></path></g><g transform="translate(204.78515625 268.2996219751505) rotate(0 60.390625 -0.058698983901308566)"><path d="M93.62 -11.96 C103.71 -9.73, 115.92 -2.65, 121.77 -1.59 M93.62 -11.96 C103.37 -7.38, 113.34 -4.19, 121.77 -1.59" stroke="#1971c2" stroke-width="2" fill="none"></path></g></g><mask></mask><g transform="translate(10 244.1785282251505) rotate(0 112.95193481445312 70)"><text x="0" y="0" font-family="Virgil, Segoe UI Emoji" font-size="28px" fill="#1e1e1e" text-anchor="start" style="white-space: pre;" direction="ltr" dominant-baseline="text-before-edge">User Prompt:</text><text x="0" y="35" font-family="Virgil, Segoe UI Emoji" font-size="28px" fill="#1e1e1e" text-anchor="start" style="white-space: pre;" direction="ltr" dominant-baseline="text-before-edge"></text><text x="0" y="70" font-family="Virgil, Segoe UI Emoji" font-size="28px" fill="#1e1e1e" text-anchor="start" style="white-space: pre;" direction="ltr" dominant-baseline="text-before-edge">high-level steps</text><text x="0" y="105" font-family="Virgil, Segoe UI Emoji" font-size="28px" fill="#1e1e1e" text-anchor="start" style="white-space: pre;" direction="ltr" dominant-baseline="text-before-edge">for the workflow</text></g><g transform="translate(343.5143338143247 418.0709026453025) rotate(0 134.1155548095703 26.24578051712365)"><text x="0" y="0" font-family="Virgil, Segoe UI Emoji" font-size="20.99662441369891px" fill="#1e1e1e" text-anchor="start" style="white-space: pre;" direction="ltr" dominant-baseline="text-before-edge">(OpenAI Assistants API, </text><text x="0" y="26.245780517123638" font-family="Virgil, Segoe UI Emoji" font-size="20.99662441369891px" fill="#1e1e1e" text-anchor="start" style="white-space: pre;" direction="ltr" dominant-baseline="text-before-edge">Langchain, LlamaIndex)</text></g><g stroke-linecap="round"><g transform="translate(577.51953125 264.57029301055746) rotate(0 85.955078125 0.10628484683962824)"><path d="M-0.96 -0.31 C27.68 -0.27, 143.12 -0.91, 171.76 -0.96 M0.74 -1.52 C29.21 -1.28, 141.98 -0.33, 170.74 -0.03" stroke="#1971c2" stroke-width="2" fill="none"></path></g><g transform="translate(577.51953125 264.57029301055746) rotate(0 85.955078125 0.10628484683962824)"><path d="M142.45 9.97 C150.38 7, 157.31 2.61, 170.74 -0.03 M142.45 9.97 C149.77 6.99, 156.41 5.84, 170.74 -0.03" stroke="#1971c2" stroke-width="2" fill="none"></path></g><g transform="translate(577.51953125 264.57029301055746) rotate(0 85.955078125 0.10628484683962824)"><path d="M142.64 -10.55 C150.31 -7.47, 157.18 -5.79, 170.74 -0.03 M142.64 -10.55 C149.73 -8.78, 156.33 -5.19, 170.74 -0.03" stroke="#1971c2" stroke-width="2" fill="none"></path></g></g><mask></mask><g stroke-linecap="round" transform="translate(750.4296875 104.3269657251505) rotate(0 303.755859375 239.720703125)"><path d="M32 0 C179.3 1.44, 327.61 0.78, 575.51 0 M32 0 C168.82 -0.29, 305.88 -0.23, 575.51 0 M575.51 0 C597.47 0.57, 607.58 8.78, 607.51 32 M575.51 0 C596.13 -0.07, 608.02 11.33, 607.51 32 M607.51 32 C608.17 173.61, 606.89 315.56, 607.51 447.44 M607.51 32 C607.24 155.3, 607.28 278.49, 607.51 447.44 M607.51 447.44 C608.74 467.77, 597.69 479.08, 575.51 479.44 M607.51 447.44 C606.53 469.05, 598.99 480.72, 575.51 479.44 M575.51 479.44 C395.08 476.92, 213.01 478.08, 32 479.44 M575.51 479.44 C416.73 477.44, 257.99 477.25, 32 479.44 M32 479.44 C9.36 479.11, 0.48 470.47, 0 447.44 M32 479.44 C9.32 480.44, -1.51 467.44, 0 447.44 M0 447.44 C-1.79 336.83, -2.03 227.52, 0 32 M0 447.44 C2.18 313.65, 1.89 179.05, 0 32 M0 32 C0.36 9.38, 9.26 -1.01, 32 0 M0 32 C-2.19 11.01, 11.21 -0.93, 32 0" stroke="#1971c2" stroke-width="2" fill="none"></path></g><g transform="translate(932.7401602903549 613.0165425693635) rotate(0 110.79594421386719 17.5)"><text x="0" y="0" font-family="Virgil, Segoe UI Emoji" font-size="28px" fill="#1971c2" text-anchor="start" style="white-space: pre;" direction="ltr" dominant-baseline="text-before-edge">MultiOn Browser</text></g><g stroke-linecap="round" transform="translate(854.12109375 413.1355594751505) rotate(0 62.021484375 23.578125)"><path d="M11.79 0 C43.25 2.47, 69.31 -0.08, 112.25 0 M11.79 0 C38.56 -0.13, 66.38 -0.62, 112.25 0 M112.25 0 C118.81 -0.07, 124.51 4.5, 124.04 11.79 M112.25 0 C120.68 -0.28, 125.6 2.62, 124.04 11.79 M124.04 11.79 C124.75 19.49, 122.69 22.53, 124.04 35.37 M124.04 11.79 C124.64 19.2, 123.83 28.45, 124.04 35.37 M124.04 35.37 C125.32 42.27, 121.04 45.19, 112.25 47.16 M124.04 35.37 C124.5 45.18, 118.64 45.51, 112.25 47.16 M112.25 47.16 C88.22 45.56, 63.77 48.49, 11.79 47.16 M112.25 47.16 C81.8 46.46, 51.16 45.99, 11.79 47.16 M11.79 47.16 C4.84 45.26, 0.87 43.61, 0 35.37 M11.79 47.16 C4.06 44.96, 1.78 41.49, 0 35.37 M0 35.37 C-0.5 29.87, 0.2 20.83, 0 11.79 M0 35.37 C0.13 25.94, 0.64 16.44, 0 11.79 M0 11.79 C-0.39 2.21, 2.11 1.73, 11.79 0 M0 11.79 C1.41 5.3, 4.99 0.28, 11.79 0" stroke="#f08c00" stroke-width="2" fill="none"></path></g><g transform="translate(881.9826202392578 424.2136844751505) rotate(0 34.15995788574219 12.5)"><text x="34.15995788574219" y="0" font-family="Virgil, Segoe UI Emoji" font-size="20px" fill="#1e1e1e" text-anchor="middle" style="white-space: pre;" direction="ltr" dominant-baseline="text-before-edge">session</text></g><g transform="translate(786.92578125 141.8543094751505) rotate(0 119.8679428100586 87.5)"><text x="0" y="0" font-family="Virgil, Segoe UI Emoji" font-size="28px" fill="#1e1e1e" text-anchor="start" style="white-space: pre;" direction="ltr" dominant-baseline="text-before-edge">- create_session</text><text x="0" y="35" font-family="Virgil, Segoe UI Emoji" font-size="28px" fill="#1e1e1e" text-anchor="start" style="white-space: pre;" direction="ltr" dominant-baseline="text-before-edge">- update_session</text><text x="0" y="70" font-family="Virgil, Segoe UI Emoji" font-size="28px" fill="#1e1e1e" text-anchor="start" style="white-space: pre;" direction="ltr" dominant-baseline="text-before-edge">- close_session</text><text x="0" y="105" font-family="Virgil, Segoe UI Emoji" font-size="28px" fill="#1e1e1e" text-anchor="start" style="white-space: pre;" direction="ltr" dominant-baseline="text-before-edge"></text><text x="0" y="140" font-family="Virgil, Segoe UI Emoji" font-size="28px" fill="#1e1e1e" text-anchor="start" style="white-space: pre;" direction="ltr" dominant-baseline="text-before-edge">- list_sessions</text></g><g stroke-linecap="round" transform="translate(1177.0234375 360.1550907251505) rotate(0 66.42578125 18.951171875)"><path d="M9.48 0 C50.85 2.05, 96.41 1.9, 123.38 0 M9.48 0 C37.17 0.06, 65.08 0.88, 123.38 0 M123.38 0 C131.16 1.65, 133.95 3.22, 132.85 9.48 M123.38 0 C129.08 -1.68, 131.76 4.33, 132.85 9.48 M132.85 9.48 C131.3 16.63, 133.75 21.52, 132.85 28.43 M132.85 9.48 C133.3 14.27, 133.32 18.89, 132.85 28.43 M132.85 28.43 C133.68 34.94, 128.71 38.11, 123.38 37.9 M132.85 28.43 C130.57 36.25, 130.87 39.74, 123.38 37.9 M123.38 37.9 C77.1 38.52, 32.38 39.1, 9.48 37.9 M123.38 37.9 C84.38 37.24, 43.21 37.2, 9.48 37.9 M9.48 37.9 C4.63 36.87, -1.45 35.9, 0 28.43 M9.48 37.9 C1.24 36.29, -1.94 33.61, 0 28.43 M0 28.43 C1.61 22.03, 0.15 16.03, 0 9.48 M0 28.43 C-0.25 21.01, 0.44 12.55, 0 9.48 M0 9.48 C-0.72 1.51, 4.75 -1.07, 9.48 0 M0 9.48 C-0.54 5.31, 3.66 2.26, 9.48 0" stroke="#e03131" stroke-width="2" fill="none"></path></g><g transform="translate(1215.2092361450195 366.6062626001505) rotate(0 28.23998260498047 12.5)"><text x="28.23998260498047" y="0" font-family="Virgil, Segoe UI Emoji" font-size="20px" fill="#e03131" text-anchor="middle" style="white-space: pre;" direction="ltr" dominant-baseline="text-before-edge">DONE</text></g><g stroke-linecap="round" transform="translate(1178.09375 491.2468876001505) rotate(0 66.42578125 20.30859375)"><path d="M10.15 0 C43.08 -0.73, 71.55 1.27, 122.7 0 M10.15 0 C37.86 1.03, 64.38 -0.26, 122.7 0 M122.7 0 C128.09 0.51, 134.36 2.18, 132.85 10.15 M122.7 0 C128.44 2.29, 130.76 2.1, 132.85 10.15 M132.85 10.15 C131.37 18.96, 133.81 26.14, 132.85 30.46 M132.85 10.15 C133.58 14.8, 131.72 20.08, 132.85 30.46 M132.85 30.46 C132.04 35.56, 129.81 40.93, 122.7 40.62 M132.85 30.46 C133.91 38.05, 128.97 39.53, 122.7 40.62 M122.7 40.62 C92.99 41.65, 66.3 42.18, 10.15 40.62 M122.7 40.62 C92.38 40.5, 60.93 39.91, 10.15 40.62 M10.15 40.62 C4.51 41.67, 0.61 36.11, 0 30.46 M10.15 40.62 C5.62 38.84, 1.23 36.77, 0 30.46 M0 30.46 C0.35 25.26, -1.48 15.96, 0 10.15 M0 30.46 C-0.08 22.02, -0.23 14.97, 0 10.15 M0 10.15 C0.07 3.9, 5.15 -1.66, 10.15 0 M0 10.15 C-0.87 1.4, 4.76 -0.01, 10.15 0" stroke="#2f9e44" stroke-width="2" fill="none"></path></g><g transform="translate(1190.569564819336 499.0554813501505) rotate(0 53.94996643066406 12.5)"><text x="53.94996643066406" y="0" font-family="Virgil, Segoe UI Emoji" font-size="20px" fill="#2f9e44" text-anchor="middle" style="white-space: pre;" direction="ltr" dominant-baseline="text-before-edge">CONTINUE</text></g><g stroke-linecap="round" transform="translate(1177.296875 425.2273563501505) rotate(0 66.42578125 18.951171875)"><path d="M9.48 0 C46.38 0.94, 88.4 2.38, 123.38 0 M9.48 0 C52.8 -0.51, 95.97 -1.16, 123.38 0 M123.38 0 C128.93 0.06, 133.34 3.18, 132.85 9.48 M123.38 0 C131.05 1.49, 133.18 2.58, 132.85 9.48 M132.85 9.48 C133.67 14.79, 132.06 16.65, 132.85 28.43 M132.85 9.48 C132.08 14.93, 132.12 17.64, 132.85 28.43 M132.85 28.43 C134.43 33.73, 131.28 37.76, 123.38 37.9 M132.85 28.43 C134.96 35.32, 128.69 39.33, 123.38 37.9 M123.38 37.9 C88.09 40.66, 50.85 37.69, 9.48 37.9 M123.38 37.9 C94.96 39.28, 65.42 38.84, 9.48 37.9 M9.48 37.9 C3.37 39.71, 1.74 34.8, 0 28.43 M9.48 37.9 C3.13 38.3, -1.07 36.24, 0 28.43 M0 28.43 C0.45 24.45, 0.6 18.43, 0 9.48 M0 28.43 C-0.06 23.75, -0.86 17.11, 0 9.48 M0 9.48 C-1.67 4.96, 5.1 -0.11, 9.48 0 M0 9.48 C0.3 4.68, 3.36 -1.65, 9.48 0" stroke="#f08c00" stroke-width="2" fill="none"></path></g><g transform="translate(1193.2126770019531 431.6785282251505) rotate(0 50.509979248046875 12.5)"><text x="50.509979248046875" y="0" font-family="Virgil, Segoe UI Emoji" font-size="20px" fill="#f08c00" text-anchor="middle" style="white-space: pre;" direction="ltr" dominant-baseline="text-before-edge">ASK USER</text></g><g transform="translate(767.6650967871765 409.59089961900344) rotate(0 36.60999298095703 35)"><text x="0" y="0" font-family="Virgil, Segoe UI Emoji" font-size="28px" fill="#1971c2" text-anchor="start" style="white-space: pre;" direction="ltr" dominant-baseline="text-before-edge">- url</text><text x="0" y="35" font-family="Virgil, Segoe UI Emoji" font-size="28px" fill="#1971c2" text-anchor="start" style="white-space: pre;" direction="ltr" dominant-baseline="text-before-edge">- cmd</text></g><g stroke-linecap="round" transform="translate(1015.2499562873982 416.2574265171839) rotate(0 41.556640625 20.21875)"><path d="M10.11 0 C25.34 1.51, 38.37 -1.45, 73 0 M10.11 0 C24.14 -0.41, 37.81 -0.1, 73 0 M73 0 C81.06 -1.3, 84.09 3.71, 83.11 10.11 M73 0 C81.15 1.28, 81.43 2.22, 83.11 10.11 M83.11 10.11 C84.95 15.43, 82.19 19.9, 83.11 30.33 M83.11 10.11 C83.94 14.28, 82.48 18.48, 83.11 30.33 M83.11 30.33 C82.62 37.82, 79.4 41.51, 73 40.44 M83.11 30.33 C81.25 35.9, 79.39 41.39, 73 40.44 M73 40.44 C52.93 42.48, 32.92 42.4, 10.11 40.44 M73 40.44 C53.79 40.69, 34.9 40.88, 10.11 40.44 M10.11 40.44 C2.88 39.07, 0.19 37.34, 0 30.33 M10.11 40.44 C1.31 41.78, 0.77 38.74, 0 30.33 M0 30.33 C1.45 22.27, -0.82 19.03, 0 10.11 M0 30.33 C-0.22 24.67, -0.5 18.39, 0 10.11 M0 10.11 C-0.31 2.2, 2.67 0.75, 10.11 0 M0 10.11 C1.09 4.06, 3.84 -0.29, 10.11 0" stroke="#1e1e1e" stroke-width="2" fill="none"></path></g><g transform="translate(1022.2966329231404 423.9761765171839) rotate(0 34.50996398925781 12.5)"><text x="34.50996398925781" y="0" font-family="Virgil, Segoe UI Emoji" font-size="20px" fill="#1e1e1e" text-anchor="middle" style="white-space: pre;" direction="ltr" dominant-baseline="text-before-edge">status</text></g><g stroke-linecap="round"><g transform="translate(1100.648765198837 426.8276885905529) rotate(0 37.68733615058147 -27.8826724153038)"><path d="M0.85 -0.83 C5.94 -8.95, 17.53 -40.2, 29.84 -49.55 C42.16 -58.91, 67.21 -55.92, 74.76 -56.96 M-0.16 1.35 C4.84 -7, 16.61 -41.47, 28.91 -51.07 C41.22 -60.68, 65.94 -55.67, 73.67 -56.26" stroke="#1971c2" stroke-width="2" fill="none"></path></g><g transform="translate(1100.648765198837 426.8276885905529) rotate(0 37.68733615058147 -27.8826724153038)"><path d="M51.83 -49.29 C55.77 -51.08, 64.32 -53.84, 73.67 -56.26 M51.83 -49.29 C55.58 -50.99, 60.71 -52.5, 73.67 -56.26" stroke="#1971c2" stroke-width="2" fill="none"></path></g><g transform="translate(1100.648765198837 426.8276885905529) rotate(0 37.68733615058147 -27.8826724153038)"><path d="M52.46 -64.96 C56.14 -62.96, 64.54 -61.94, 73.67 -56.26 M52.46 -64.96 C56.05 -63.51, 61.05 -61.88, 73.67 -56.26" stroke="#1971c2" stroke-width="2" fill="none"></path></g></g><mask></mask><g stroke-linecap="round"><g transform="translate(1105.4101125373982 441.32853784425134) rotate(0 34.79299060630092 0.11739127361408919)"><path d="M1.04 0.45 C12.65 0.46, 57.29 -0.4, 68.86 -0.63 M0.12 -0.36 C12.2 -0.15, 59.52 0.43, 71.19 0.45" stroke="#1971c2" stroke-width="2" fill="none"></path></g><g transform="translate(1105.4101125373982 441.32853784425134) rotate(0 34.79299060630092 0.11739127361408919)"><path d="M42.92 10.49 C50.26 6.71, 54.59 7.09, 71.19 0.45 M42.92 10.49 C47.73 9.23, 54.45 7.16, 71.19 0.45" stroke="#1971c2" stroke-width="2" fill="none"></path></g><g transform="translate(1105.4101125373982 441.32853784425134) rotate(0 34.79299060630092 0.11739127361408919)"><path d="M43.08 -10.03 C50.26 -9.07, 54.56 -3.96, 71.19 0.45 M43.08 -10.03 C47.9 -7.15, 54.59 -5.07, 71.19 0.45" stroke="#1971c2" stroke-width="2" fill="none"></path></g></g><mask></mask><g stroke-linecap="round"><g transform="translate(1101.0917112193515 447.35978411987963) rotate(0 37.491253765324245 33.28548994850712)"><path d="M-0.81 0.11 C4.02 10.28, 15.77 51.15, 28.52 62.04 C41.27 72.92, 67.79 64.58, 75.7 65.42 M0.97 -0.87 C5.74 9.94, 15.53 51.9, 27.92 63.06 C40.31 74.23, 67.17 65.24, 75.32 66.13" stroke="#1971c2" stroke-width="2" fill="none"></path></g><g transform="translate(1101.0917112193515 447.35978411987963) rotate(0 37.491253765324245 33.28548994850712)"><path d="M53.95 76.21 C59.61 74.83, 63.37 72.3, 75.32 66.13 M53.95 76.21 C57.38 74.92, 62 72.96, 75.32 66.13" stroke="#1971c2" stroke-width="2" fill="none"></path></g><g transform="translate(1101.0917112193515 447.35978411987963) rotate(0 37.491253765324245 33.28548994850712)"><path d="M52.46 60.12 C58.65 62.94, 62.79 64.6, 75.32 66.13 M52.46 60.12 C56.33 62.09, 61.25 63.42, 75.32 66.13" stroke="#1971c2" stroke-width="2" fill="none"></path></g></g><mask></mask><g stroke-linecap="round"><g transform="translate(979.9391813799732 435.6138033551238) rotate(0 17.249811978985235 -0.2581330016258221)"><path d="M-0.49 -0.19 C5.21 -0.19, 28.55 -0.4, 34.36 -0.49 M0.25 -0.76 C5.86 -0.63, 28.25 0.14, 33.86 0.22" stroke="#1971c2" stroke-width="2" fill="none"></path></g><g transform="translate(979.9391813799732 435.6138033551238) rotate(0 17.249811978985235 -0.2581330016258221)"><path d="M17.51 5.7 C22.54 3.79, 28.18 2.01, 33.86 0.22 M17.51 5.7 C21.43 4.02, 26.11 2.46, 33.86 0.22" stroke="#1971c2" stroke-width="2" fill="none"></path></g><g transform="translate(979.9391813799732 435.6138033551238) rotate(0 17.249811978985235 -0.2581330016258221)"><path d="M17.81 -6.09 C22.69 -4.19, 28.24 -2.14, 33.86 0.22 M17.81 -6.09 C21.64 -4.74, 26.24 -3.27, 33.86 0.22" stroke="#1971c2" stroke-width="2" fill="none"></path></g></g><mask></mask><g stroke-linecap="round"><g transform="translate(1315.2421875 442.4597782251505) rotate(0 80.5078125 0.39453125)"><path d="M0.53 -0.63 C27.45 -0.81, 134.99 -0.5, 161.79 -0.33 M-0.65 1.65 C26.15 1.52, 134.35 0.65, 161.25 0.61" stroke="#f08c00" stroke-width="2" fill="none"></path></g><g transform="translate(1315.2421875 442.4597782251505) rotate(0 80.5078125 0.39453125)"><path d="M133.11 11.02 C141.18 8.79, 149.55 4.65, 161.25 0.61 M133.11 11.02 C140.71 9.05, 147.14 6.02, 161.25 0.61" stroke="#f08c00" stroke-width="2" fill="none"></path></g><g transform="translate(1315.2421875 442.4597782251505) rotate(0 80.5078125 0.39453125)"><path d="M133.01 -9.5 C141.23 -5.03, 149.63 -2.48, 161.25 0.61 M133.01 -9.5 C140.74 -6.04, 147.19 -3.63, 161.25 0.61" stroke="#f08c00" stroke-width="2" fill="none"></path></g></g><mask></mask><g transform="translate(1499.44140625 424.2019657251505) rotate(0 70.20996856689453 17.5)"><text x="0" y="0" font-family="Virgil, Segoe UI Emoji" font-size="28px" fill="#f08c00" text-anchor="start" style="white-space: pre;" direction="ltr" dominant-baseline="text-before-edge">Ask human</text></g><g stroke-linecap="round"><g transform="translate(1318.109375 382.2918187327499) rotate(0 73.05859375 -2.150395253799701)"><path d="M-0.76 -0.1 C23.73 -0.97, 121.8 -3.57, 146.21 -4.2 M1.04 -1.19 C25.45 -1.34, 121.36 -1.81, 145.32 -2.61" stroke="#e03131" stroke-width="2" fill="none"></path></g><g transform="translate(1318.109375 382.2918187327499) rotate(0 73.05859375 -2.150395253799701)"><path d="M117.31 8.13 C123.71 5.91, 130.71 2.57, 145.32 -2.61 M117.31 8.13 C127.27 5.11, 135.84 1.49, 145.32 -2.61" stroke="#e03131" stroke-width="2" fill="none"></path></g><g transform="translate(1318.109375 382.2918187327499) rotate(0 73.05859375 -2.150395253799701)"><path d="M116.96 -12.39 C123.63 -9.72, 130.71 -8.18, 145.32 -2.61 M116.96 -12.39 C126.89 -8.52, 135.58 -5.25, 145.32 -2.61" stroke="#e03131" stroke-width="2" fill="none"></path></g></g><mask></mask><g transform="translate(1490.7734375 371.0847782251505) rotate(0 76.27196502685547 17.5)"><text x="0" y="0" font-family="Virgil, Segoe UI Emoji" font-size="28px" fill="#e03131" text-anchor="start" style="white-space: pre;" direction="ltr" dominant-baseline="text-before-edge">Terminated</text></g><g stroke-linecap="round"><g transform="translate(1321.09375 513.0693444226633) rotate(0 74.435546875 -0.8829080987563884)"><path d="M0.1 -1.13 C24.93 -1.51, 124.58 -2.27, 149.54 -2.36 M-1.31 0.9 C23.37 0.67, 123.79 -0.93, 148.95 -1.13" stroke="#2f9e44" stroke-width="2" fill="none"></path></g><g transform="translate(1321.09375 513.0693444226633) rotate(0 74.435546875 -0.8829080987563884)"><path d="M120.89 9.48 C128.75 6.89, 139.38 3.74, 148.95 -1.13 M120.89 9.48 C129.5 7.08, 137.95 2.27, 148.95 -1.13" stroke="#2f9e44" stroke-width="2" fill="none"></path></g><g transform="translate(1321.09375 513.0693444226633) rotate(0 74.435546875 -0.8829080987563884)"><path d="M120.63 -11.04 C128.58 -6.5, 139.3 -2.54, 148.95 -1.13 M120.63 -11.04 C129.45 -7.11, 137.98 -5.58, 148.95 -1.13" stroke="#2f9e44" stroke-width="2" fill="none"></path></g></g><mask></mask><g transform="translate(1491.89453125 490.9089969751505) rotate(0 165.9139404296875 35)"><text x="0" y="0" font-family="Virgil, Segoe UI Emoji" font-size="28px" fill="#2f9e44" text-anchor="start" style="white-space: pre;" direction="ltr" dominant-baseline="text-before-edge">Continue session</text><text x="0" y="35" font-family="Virgil, Segoe UI Emoji" font-size="28px" fill="#2f9e44" text-anchor="start" style="white-space: pre;" direction="ltr" dominant-baseline="text-before-edge">automatically or manual</text></g><g transform="translate(522.7015974772926 10) rotate(0 196.12796020507812 22.5)"><text x="0" y="0" font-family="Virgil, Segoe UI Emoji" font-size="36px" fill="#1e1e1e" text-anchor="start" style="white-space: pre;" direction="ltr" dominant-baseline="text-before-edge">MULTION Agent API </text></g></svg>